# xmcd CD database file
#
# Track frame offsets:
#	150
#	20921
#	46233
#	76122
#	98171
#	119821
#	144323
#	167390
#	189638
#	208172
#	230698
#
# Disc length: 3486 seconds
#
# Revision: 0
# Processed by: cddbd v1.5.2PL0 Copyright (c) Steve Scherf et al.
# Submitted via: CDex 1.51
#
DISCID=950d9c0b
DTITLE=Carme Canela and trio - Iris
DYEAR=2002
DGENRE=Jazz
TTITLE0=Per Sant Joan
TTITLE1=Oceano
TTITLE2=Strange Meeting
TTITLE3=Cançao do Sal
TTITLE4=My Love
TTITLE5=Iris
TTITLE6=Oleo de Mujer con Sombrero
TTITLE7=Verd Mari
TTITLE8=Lluna
TTITLE9=Young and Fine
TTITLE10=Estate
EXTD=YEAR: 2002
EXTT0=
EXTT1=
EXTT2=
EXTT3=
EXTT4=
EXTT5=
EXTT6=
EXTT7=
EXTT8=
EXTT9=
EXTT10=
PLAYORDER=
